# xmcd
#
# Track frame offsets:
#	150
#	17250
#	38658
#	56502
#	66927
#	84821
#	103227
#	122025
#	140730
#	155396
#	168191
#
# Disc length: 2474 seconds
#
# Revision: 1
# Processed by: cddbd v1.5.2PL0 Copyright (c) Steve Scherf et al.
# Submitted via: audiograbber 1.83.01
#
DISCID=8409a80b
DTITLE=De Dijk - De jonge jaren van De Dijk  - CD 1
DYEAR=1900
DGENRE=
TTITLE0=Bloedend Hart
TTITLE1=Stilte voor de storm
TTITLE2=Late café
TTITLE3=Koud en eenzaam
TTITLE4=Stad bij nacht
TTITLE5=Knock out
TTITLE6=Nooit meer Tarzan
TTITLE7=Hunker
TTITLE8=Slow Motion
TTITLE9=Zoveel ik kan
TTITLE10=De zon gaat op voor niks
EXTD=
EXTT0=
EXTT1=
EXTT2=
EXTT3=
EXTT4=
EXTT5=
EXTT6=
EXTT7=
EXTT8=
EXTT9=
EXTT10=
PLAYORDER=
